<?xml version="1.0" encoding="UTF-8" standalone="no"?>
<!-- Created with Inkscape (http://www.inkscape.org/) -->

<svg
   xmlns:dc="http://purl.org/dc/elements/1.1/"
   xmlns:cc="http://creativecommons.org/ns#"
   xmlns:rdf="http://www.w3.org/1999/02/22-rdf-syntax-ns#"
   xmlns:svg="http://www.w3.org/2000/svg"
   xmlns="http://www.w3.org/2000/svg"
   xmlns:sodipodi="http://sodipodi.sourceforge.net/DTD/sodipodi-0.dtd"
   xmlns:inkscape="http://www.inkscape.org/namespaces/inkscape"
   width="55mm"
   height="68.830994mm"
   viewBox="0 0 55 68.830994"
   version="1.1"
   id="svg8"
   inkscape:version="0.92.4 5da689c313, 2019-01-14"
   sodipodi:docname="bashnet.svg">
  <defs
     id="defs2" />
  <sodipodi:namedview
     id="base"
     pagecolor="#ffffff"
     bordercolor="#666666"
     borderopacity="1.0"
     inkscape:pageopacity="0.0"
     inkscape:pageshadow="2"
     inkscape:zoom="2.3346329"
     inkscape:cx="304.17956"
     inkscape:cy="141.27246"
     inkscape:document-units="mm"
     inkscape:current-layer="layer1"
     showgrid="false"
     inkscape:window-width="2560"
     inkscape:window-height="1371"
     inkscape:window-x="3840"
     inkscape:window-y="408"
     inkscape:window-maximized="0" />
  <metadata
     id="metadata5">
    <rdf:RDF>
      <cc:Work
         rdf:about="">
        <dc:format>image/svg+xml</dc:format>
        <dc:type
           rdf:resource="http://purl.org/dc/dcmitype/StillImage" />
        <dc:title></dc:title>
      </cc:Work>
    </rdf:RDF>
  </metadata>
  <g
     inkscape:label="Layer 1"
     inkscape:groupmode="layer"
     id="layer1"
     transform="translate(-24.519157,-90.245756)">
    <path
       inkscape:connector-curvature="0"
       id="path4520"
       d="m 77.519157,126.21128 a 25.5,25.5 0 0 1 -25.5,25.5 25.5,25.5 0 0 1 -25.5,-25.5 25.5,25.5 0 0 1 25.5,-25.5 25.5,25.5 0 0 1 25.5,25.5 z"
       style="opacity:1;vector-effect:none;fill:#e0e0e0;fill-opacity:1;stroke:#008cff;stroke-width:4;stroke-linecap:butt;stroke-linejoin:miter;stroke-miterlimit:4;stroke-dasharray:none;stroke-dashoffset:0;stroke-opacity:1;paint-order:normal" />
    <path
       inkscape:connector-curvature="0"
       id="circle4524"
       d="m 69.076092,126.21128 a 17.056934,25.5 0 0 1 -17.056935,25.5 17.056934,25.5 0 0 1 -17.056934,-25.5 17.056934,25.5 0 0 1 17.056934,-25.5 17.056934,25.5 0 0 1 17.056935,25.5 z"
       style="opacity:1;vector-effect:none;fill:none;fill-opacity:1;stroke:#008cff;stroke-width:3;stroke-linecap:butt;stroke-linejoin:miter;stroke-miterlimit:4;stroke-dasharray:none;stroke-dashoffset:0;stroke-opacity:1;paint-order:normal" />
    <path
       inkscape:connector-curvature="0"
       id="ellipse4526"
       d="m 61.709659,126.21128 a 9.6905012,25.5 0 0 1 -9.690502,25.5 9.6905012,25.5 0 0 1 -9.690501,-25.5 9.6905012,25.5 0 0 1 9.690501,-25.5 9.6905012,25.5 0 0 1 9.690502,25.5 z"
       style="opacity:1;vector-effect:none;fill:none;fill-opacity:1;stroke:#008cff;stroke-width:3;stroke-linecap:butt;stroke-linejoin:miter;stroke-miterlimit:4;stroke-dasharray:none;stroke-dashoffset:0;stroke-opacity:1;paint-order:normal" />
    <path
       style="fill:none;fill-rule:evenodd;stroke:#008cff;stroke-width:3;stroke-linecap:butt;stroke-linejoin:miter;stroke-miterlimit:4;stroke-dasharray:none;stroke-opacity:1"
       d="m 52.019157,152.05127 v -51.4517"
       id="path4528"
       inkscape:connector-curvature="0" />
    <path
       inkscape:connector-curvature="0"
       id="path4530"
       d="m 77.745007,126.32542 h -51.4517"
       style="fill:none;fill-rule:evenodd;stroke:#008cff;stroke-width:3;stroke-linecap:butt;stroke-linejoin:miter;stroke-miterlimit:4;stroke-dasharray:none;stroke-opacity:1" />
    <g
       id="text4534"
       style="font-style:normal;font-weight:normal;font-size:40.56944275px;line-height:125%;font-family:sans-serif;letter-spacing:0px;word-spacing:0px;fill:#e0e0e0;fill-opacity:1;stroke:#008cff;stroke-width:3;stroke-linecap:butt;stroke-linejoin:round;stroke-miterlimit:4;stroke-dasharray:none;stroke-dashoffset:0;stroke-opacity:1;paint-order:stroke fill markers"
       aria-label="$">
      <path
         inkscape:connector-curvature="0"
         id="path4737"
         style="font-size:40.56944275px"
         d="m 49.950116,145.2992 v -5.47688 q -1.703917,-0.28398 -3.042708,-1.0548 -1.582209,-0.89253 -2.515306,-2.51531 -0.811389,-1.37936 -0.892528,-2.921 l 4.056945,-0.64911 q 0.04057,0.89253 0.446264,1.66335 0.486833,0.81139 1.298222,1.29822 0.405694,0.24342 0.892527,0.36512 v -8.47901 q -1.41993,-0.5274 -2.353027,-1.09537 -2.069042,-1.17652 -3.123847,-3.04271 -1.014236,-1.74449 -1.014236,-3.65125 0,-1.94734 0.933097,-3.61068 0.892528,-1.54164 2.555875,-2.47474 1.217083,-0.73025 2.758722,-1.01423 v -5.51745 h 4.138083 v 5.47688 q 1.703917,0.28398 3.042708,1.0548 1.582208,0.89253 2.515306,2.51531 0.811389,1.37936 0.892527,2.921 l -4.056944,0.64911 q -0.04057,-0.89253 -0.446264,-1.66335 -0.486833,-0.81139 -1.298222,-1.29822 -0.405694,-0.24342 -0.892528,-0.36513 v 8.47902 q 1.419931,0.5274 2.353028,1.09537 2.069042,1.17652 3.123847,3.04271 1.014236,1.74449 1.014236,3.69182 0,1.90676 -0.933097,3.57011 -0.892528,1.54164 -2.555875,2.47474 -1.217083,0.73025 -2.758722,1.01423 v 5.51745 z m 0.243416,-22.02921 v -6.7751 q -0.365124,0.12171 -0.68968,0.32456 -0.811389,0.44626 -1.257653,1.21708 -0.405694,0.73025 -0.405694,1.58221 0,0.9331 0.486833,1.82562 0.608542,1.05481 1.866194,1.82563 z m 3.65125,12.65767 q 0.365125,-0.12171 0.689681,-0.32456 0.811389,-0.44626 1.217083,-1.17651 0.446264,-0.77082 0.446264,-1.62278 0,-0.9331 -0.486833,-1.82563 -0.608542,-1.0548 -1.866195,-1.82562 z" />
    </g>
    <path
       style="font-style:normal;font-variant:normal;font-weight:normal;font-stretch:normal;font-size:5.64444447px;line-height:125%;font-family:Linotte;-inkscape-font-specification:Linotte;text-align:center;letter-spacing:0px;word-spacing:0px;text-anchor:middle;fill:#008cff;fill-opacity:1;stroke:none;stroke-width:0.99999994px;stroke-linecap:butt;stroke-linejoin:miter;stroke-opacity:1"
       d="m 124.80859,561.77148 c -0.40322,-0.003 -0.77348,0.21594 -0.97461,0.64454 v 0.002 c -1.4886,3.33097 -2.94869,6.73226 -4.35351,10.01758 -0.68333,1.57795 -1.08594,2.41695 -0.0723,3.20117 0.65297,0.48091 1.44201,0.17104 1.97071,-0.21484 2.83012,-2.0843 5.01493,-3.6545 7.3789,-5.51758 -0.66093,2.21756 -1.55126,5.54922 -2.53125,8.89648 -0.19612,0.61739 -0.34049,1.34819 0.42969,1.88477 0.83489,0.55566 1.3097,0.20989 1.90625,-0.31055 l 9.00195,-8.44531 c 0.52654,-0.5692 0.26911,-1.31875 -0.29101,-1.70899 -0.64765,-0.4512 -1.09943,-0.32387 -1.87891,0.45899 -2.01232,2.0301 -5.3137,5.16408 -6.59375,6.40429 l 2.54688,-8.73046 c 0.17015,-0.50548 -0.0314,-1.11458 -0.48633,-1.43164 -0.61265,-0.42683 -1.2,-0.36678 -1.84375,0.14648 -3.17,2.49755 -5.34065,4.23457 -7.09961,5.45312 1.0958,-2.35657 3.14284,-7.0137 4.04883,-9.06054 0.2852,-0.6333 0.15185,-1.039 -0.42578,-1.44141 -0.23631,-0.16463 -0.49049,-0.24631 -0.73243,-0.24805 z m 142.84766,0.58008 c -0.23587,0.002 -0.4843,0.11044 -0.76953,0.33008 -0.64228,0.49463 -0.75369,1.11933 -0.27734,1.66797 l 3.11914,3.73828 1.9414,2.27344 c 0.5024,0.58246 0.92578,0.60814 1.36524,0.26953 0.42255,-0.32542 0.5429,-0.79629 0.19922,-1.3125 -1.37333,-1.95814 -3.09356,-4.40224 -4.40821,-6.10938 -0.4206,-0.56801 -0.77681,-0.86118 -1.16992,-0.85742 z m -1.10937,7.54492 c -0.8867,-0.0435 -1.80435,0.20106 -2.67579,0.78321 -1.15304,0.77027 -1.81451,2.00722 -1.73047,3.28515 l -0.59765,-0.78125 c -0.36722,-0.39609 -0.8005,-0.38822 -1.26172,-0.0801 -0.54991,0.36737 -0.79169,0.88665 -0.38281,1.5371 l 2.30468,3.41211 4.64063,6.98438 c 0.41477,0.62086 0.91672,0.72111 1.48437,0.3418 0.7569,-0.48 0.8817,-1.02544 0.45508,-1.66407 -0.58067,-0.86921 -1.17326,-1.67811 -1.57617,-2.28125 -0.41476,-0.62086 -0.87028,-1.26616 -1.11914,-1.63867 0.95886,0.35981 2.05153,0.19276 3.04492,-0.4707 2.39479,-1.5998 2.85971,-4.62851 1.24805,-7.04102 -0.96285,-1.44132 -2.35616,-2.31416 -3.83398,-2.38672 z m 8.46093,1.93164 c -0.26006,0.028 -0.52429,0.13771 -0.77148,0.32813 -0.64229,0.49463 -0.72899,1.39482 -0.23438,2.03711 0.48161,0.6254 1.28342,0.65473 1.875,0.19922 0.69299,-0.53367 0.84161,-1.32138 0.29493,-2.03125 -0.30914,-0.40143 -0.73063,-0.5799 -1.16407,-0.53321 z m -8.90625,0.37891 c 0.85097,0.0231 1.71957,0.46787 2.30469,1.34375 1.03099,1.5433 0.74222,3.30092 -0.55273,4.16602 -1.3127,0.87692 -2.77344,0.57097 -3.82813,-1.00782 -1.00729,-1.5078 -0.63058,-3.24844 0.62891,-4.08984 0.43239,-0.28885 0.93668,-0.42594 1.44726,-0.41211 z m -118.99804,2.60156 c -0.2448,0.0542 -0.45406,0.22142 -0.60157,0.5293 -0.42407,0.88498 -0.81744,1.85449 -1.26757,2.89258 -0.21045,0.53786 -0.0415,0.9746 0.43945,1.20508 0.63487,0.30425 1.0019,0.0304 1.32617,-0.54688 0.27817,-0.48177 1.18585,-2.1295 1.38867,-2.55273 0.29499,-0.61565 0.10647,-1.10818 -0.4707,-1.38477 -0.28858,-0.13833 -0.56966,-0.19677 -0.81445,-0.14258 z m 109.46484,1.33399 c -0.58537,-0.0351 -1.20888,0.0492 -1.85742,0.28515 -0.21963,-0.002 -0.4167,0.0815 -0.62305,0.19336 -2.94357,1.64274 -3.73644,4.52134 -2.22266,7.31641 1.35123,2.4949 4.25363,3.10624 6.52344,1.87695 2.60748,-1.41218 3.54226,-4.34409 2.15039,-6.91406 -0.79245,-1.46319 -2.21458,-2.65242 -3.9707,-2.75781 z m -118.94727,0.16406 c -1.78149,0.0666 -3.51935,1.14724 -4.5039,2.94922 -1.20028,2.28571 -0.37805,5.14175 1.94336,6.41016 1.44151,0.78765 2.48369,0.96731 3.42187,0.89648 0.45973,-0.0404 0.83885,-0.19685 1.0332,-0.55273 0.27618,-0.50548 0.1192,-1.1998 -0.33007,-1.44532 -0.28082,-0.15345 -0.56703,-0.16456 -0.86328,-0.15625 -0.62146,0.0265 -1.39912,-0.10769 -2.0918,-0.48632 -1.27303,-0.69559 -1.69707,-2.14248 -1.1582,-3.30665 2.23802,1.19853 3.49952,1.9119 4.56835,2.44727 1.32071,0.69732 1.73762,0.29392 2.26954,-0.67969 0.94107,-1.72237 0.28997,-4.31489 -1.90039,-5.51172 -0.76055,-0.41556 -1.57891,-0.59471 -2.38868,-0.56445 z m 101.63672,1.20703 c -0.14916,0.01 -0.30891,0.0514 -0.48047,0.125 -0.76464,0.32806 -0.96917,0.87981 -0.63281,1.66406 L 242.32617,589 c 0.2691,0.6274 0.69056,1.77017 1.06055,2.63281 0.26067,0.60783 0.86494,0.71908 1.45312,0.4668 0.66661,-0.28573 0.98334,-0.79257 0.72266,-1.40039 -0.38681,-0.90187 -1.18237,-2.64971 -1.69531,-3.8457 -0.64749,-1.50966 -0.006,-2.99023 1.15039,-3.48633 1.19597,-0.51296 2.23771,-0.0316 2.85156,1.39843 0.3784,0.8823 1.39545,3.41785 1.67578,4.17969 0.2691,0.6274 0.90603,0.70284 1.47461,0.45899 0.66661,-0.28574 1.0112,-0.78218 0.76172,-1.41797 -0.66152,-1.59651 -1.26999,-2.95974 -1.8418,-4.29297 -0.95861,-2.2351 -2.92295,-3.4598 -5.19726,-2.48438 -1.21559,0.52135 -2.00468,1.60264 -2.09961,2.73438 -1.74348,-4.17335 -2.11237,-5.08358 -2.37305,-5.69141 -0.22073,-0.51466 -0.56423,-0.76808 -1.01172,-0.73828 z M 137.70508,578.25 c 0.46821,-0.0386 0.96127,0.0516 1.43164,0.30859 0.93605,0.51149 1.4083,1.693 0.8457,2.72266 -0.0511,0.0937 -0.17513,0.0978 -0.3164,0.0449 -0.81697,-0.37342 -2.88589,-1.47982 -3.85938,-2.01172 0.40904,-0.58178 1.11808,-1.00012 1.89844,-1.06445 z m 118.125,0.0703 c 1.10465,-0.0581 2.06681,0.58618 2.62304,1.61328 0.90421,1.66953 0.25377,3.38024 -1.07812,4.10157 -1.06925,0.5791 -2.69467,0.22063 -3.4668,-1.20508 -0.96516,-1.78209 -0.60573,-3.3579 0.7793,-4.20508 0.39003,-0.18697 0.77436,-0.28532 1.14258,-0.30469 z m -107.5918,2.7793 c -0.45013,-0.0438 -0.81375,0.1743 -1.01953,0.69531 -0.29397,0.68636 -0.58551,1.42115 -0.87109,2.08789 -0.59637,1.39234 -1.45863,3.29726 -2.125,4.79883 -0.41439,0.91329 -0.1394,1.35504 0.52734,1.64063 0.62753,0.26872 1.18758,0.20717 1.48438,-0.43165 0.48998,-1.08978 0.91205,-2.18549 1.33203,-3.16601 0.83995,-1.96101 2.4069,-2.63641 3.70117,-2.08203 l 0.33203,0.14453 c 0.62753,0.26872 1.10192,-0.13272 1.32031,-0.64258 0.31079,-0.72559 0.0828,-1.17087 -0.60351,-1.46484 -0.98051,-0.41998 -2.36698,-0.27131 -3.46485,0.7207 l 0.38477,-1.11133 c 0.12314,-0.50426 -0.0705,-0.86733 -0.52149,-1.06054 -0.16668,-0.0714 -0.32652,-0.11432 -0.47656,-0.12891 z m 68.42578,2.84375 c -0.148,-0.0211 -0.315,-0.0131 -0.49804,0.0234 -0.81587,0.16289 -1.12817,0.66126 -0.96094,1.49804 l 2.08984,10.34961 c 0.1338,0.66943 0.30823,1.87446 0.49219,2.79493 0.1296,0.64849 0.69858,0.88321 1.32617,0.75781 0.71127,-0.14211 1.1257,-0.57218 0.9961,-1.22071 -0.19231,-0.9623 -0.61022,-2.83716 -0.86524,-4.11328 -0.3219,-1.61079 0.61144,-2.92913 1.8457,-3.17578 1.2761,-0.25512 2.19677,0.43187 2.50196,1.95899 0.18814,0.9414 0.66032,3.63224 0.77734,4.43554 0.1338,0.66943 0.74099,0.87317 1.34766,0.75196 0.71127,-0.14211 1.14997,-0.55489 1.03711,-1.22852 -0.31771,-1.69867 -0.63173,-3.15949 -0.91602,-4.58203 -0.4766,-2.38481 -2.14559,-3.9869 -4.57227,-3.50195 -1.29702,0.25927 -2.29264,1.15444 -2.61914,2.24218 -0.84447,-4.44336 -1.01493,-5.41006 -1.14453,-6.05859 -0.10975,-0.54913 -0.39389,-0.86843 -0.83789,-0.93164 z m -60.09765,0.57617 c -2.12792,-0.0135 -4.12753,1.46025 -4.91993,3.75391 -0.80256,2.45378 0.48405,5.13423 2.98438,5.99804 1.55262,0.53636 2.61019,0.54078 3.52344,0.31446 0.44654,-0.11641 0.79342,-0.33581 0.92578,-0.71875 0.18807,-0.54441 -0.0805,-1.20197 -0.56446,-1.36914 -0.30243,-0.10432 -0.58622,-0.0677 -0.87695,-0.0117 -0.60859,0.1285 -1.39847,0.1269 -2.14453,-0.13086 -1.37045,-0.47345 -2.02949,-1.82919 -1.69336,-3.06641 2.40648,0.80882 3.77095,1.30259 4.91406,1.65235 1.41845,0.46745 1.76082,-2.8e-4 2.12305,-1.04883 0.64088,-1.85507 -0.43183,-4.30217 -2.79101,-5.11719 -0.4915,-0.1698 -0.98942,-0.25274 -1.48047,-0.25586 z m 80.54101,0.0957 c -0.63467,0.0217 -1.41987,0.16904 -2.28515,0.45704 -1.90261,0.6336 -3.31971,2.45515 -2.72657,4.23632 0.60662,1.82162 2.50974,1.66033 4.20313,1.34375 1.31557,-0.23584 2.09152,-0.26902 2.34765,0.5 0.24265,0.72866 -0.35942,1.35577 -1.25,1.65235 -1.41683,0.47183 -2.38,0.14125 -3.1289,0.39062 -0.6477,0.21581 -0.69654,0.81607 -0.50781,1.38281 0.23591,0.7084 2.25984,0.70821 4.04101,0.11524 2.34791,-0.78187 3.48124,-2.37278 2.84766,-4.27539 -0.62011,-1.86214 -2.29936,-1.97768 -4.33008,-1.59375 -1.05921,0.1954 -1.98889,0.43844 -2.23828,-0.31055 -0.22915,-0.68817 0.41073,-1.39699 1.3418,-1.70703 1.15371,-0.38423 2.01653,-0.15421 2.60351,-0.34961 0.60722,-0.2022 0.74342,-0.67545 0.55469,-1.24219 -0.13482,-0.40482 -0.49262,-0.53272 -0.89063,-0.58007 -0.17539,-0.0203 -0.37047,-0.0268 -0.58203,-0.0195 z m -50.72265,1.60352 c -0.31837,-0.005 -0.61248,-3.4e-4 -0.85938,0.0156 -0.70807,0.0393 -1.16384,0.47876 -1.20703,1.13867 -0.0822,1.25597 -0.0936,2.41004 -0.17578,3.66601 l -0.2832,4.32227 -0.26954,3.80859 c -0.0117,0.83301 0.3354,1.41134 1.12305,1.46289 l 1.66016,0.10938 c 1.57529,0.10318 2.72434,0.17816 3.66797,0.13281 2.3144,-0.0839 3.9168,-1.36928 4.08398,-3.92383 0.11286,-1.72429 -0.96577,-2.90554 -2.49609,-3.36914 1.11772,-0.41858 2.02218,-1.47099 2.12109,-2.98242 0.13754,-2.4282 -1.80973,-4.0524 -4.4707,-4.22656 -0.76636,-0.0502 -1.93944,-0.13995 -2.89453,-0.1543 z m -29.91211,0.22656 c 0.3211,-0.0199 0.65639,0.022 0.99414,0.13867 1.0082,0.34848 1.67024,1.43395 1.28711,2.54297 -0.0348,0.10092 -0.15657,0.12638 -0.30469,0.0977 -0.86778,-0.23206 -3.0921,-0.97758 -4.14063,-1.33984 0.36764,-0.77015 1.20076,-1.37973 2.16407,-1.43946 z m 30.16015,1.82813 c 0.53359,0.0151 1.91917,0.0828 2.47266,0.11914 1.33974,0.10923 2.4479,0.8018 2.38281,2.12304 -0.0947,1.44756 -1.06881,2.3014 -2.53906,2.22657 -0.76636,-0.0503 -2.08851,-0.11436 -2.57813,-0.14649 0.21835,-3.66293 0.24502,-4.0668 0.26172,-4.32226 z m -15.31054,0.37695 c -2.31146,-0.01 -4.3119,1.61343 -4.85938,4.2832 -0.52283,2.5496 0.80449,4.99841 3.58399,5.56836 1.35839,0.27855 2.56426,-0.083 3.41406,-1.04101 -0.0766,1.11673 0.006,1.67693 0.69531,1.81836 0.60605,0.12434 1.23244,0.0343 1.38672,-0.7168 0.12159,-0.91151 0.28056,-1.79279 0.46484,-2.69141 l 0.67383,-3.17187 0.34961,-1.60547 c 0.16286,-0.79415 0.0117,-1.32661 -0.82422,-1.49805 -0.48066,-0.0986 -0.82502,0.0919 -1.05273,0.45899 -0.0804,0.17953 -0.18997,0.50581 -0.28321,0.74804 -0.4341,-1.069 -1.37265,-1.80492 -2.54297,-2.04492 -0.33959,-0.0696 -0.67565,-0.10606 -1.00585,-0.10742 z m 40.30468,1.70899 c -0.27579,0.009 -0.56711,0.0299 -0.86914,0.0644 -1.99233,0.2279 -3.75446,1.71882 -3.54101,3.58398 0.2183,1.90753 2.11365,2.14256 3.83593,2.18164 1.33592,0.0404 2.10119,0.16724 2.19336,0.97266 0.0873,0.76301 -0.62796,1.25264 -1.56054,1.35937 -1.48365,0.16971 -2.36032,-0.35324 -3.14453,-0.26367 -0.67824,0.0775 -0.84722,0.65654 -0.7793,1.25 0.0849,0.74181 2.06453,1.15878 3.92969,0.94531 2.45862,-0.28119 3.89597,-1.60531 3.66797,-3.59765 -0.22315,-1.94994 -1.84391,-2.4085 -3.91016,-2.45117 -1.07673,-0.0265 -2.03721,0.019 -2.12695,-0.76563 -0.0825,-0.72064 0.69104,-1.28296 1.66601,-1.39453 1.20812,-0.13833 2.00644,0.26561 2.6211,0.19531 0.63584,-0.0729 0.86478,-0.5081 0.79687,-1.10156 -0.0485,-0.42391 -0.37222,-0.62364 -0.75195,-0.75195 -0.50236,-0.1681 -1.19997,-0.25284 -2.02735,-0.22656 z m -40.13281,0.33398 c 0.18218,-0.003 0.36855,0.0161 0.55664,0.0547 1.3584,0.27855 2.42319,1.5631 2.0332,3.46484 -0.36427,1.77638 -1.7953,2.70187 -3.34179,2.38477 -1.4002,-0.28725 -2.27297,-1.66365 -1.94727,-3.25196 0.33374,-1.62745 1.42394,-2.63309 2.69922,-2.65234 z m 32.63281,0.45312 c -0.49044,0.0151 -0.78089,0.27987 -0.91797,0.68946 -0.037,0.19313 -0.0705,0.53577 -0.10546,0.79297 -0.66858,-0.94035 -1.75119,-1.44216 -2.94532,-1.40625 -2.77208,0.0835 -4.83973,2.30079 -4.74609,5.41406 0.0782,2.60149 1.93348,4.68101 4.76953,4.5957 1.38604,-0.0416 2.47762,-0.6727 3.08398,-1.80078 0.18263,1.10434 0.39008,1.63249 1.09376,1.61133 0.61838,-0.0189 1.21058,-0.24996 1.1875,-1.01758 -0.0915,-0.91499 -0.14038,-1.8116 -0.16797,-2.72851 l -0.0762,-3.24024 -0.0293,-1.64258 c -0.0242,-0.81029 -0.29352,-1.29324 -1.14649,-1.26758 z m -3.77929,2.07618 c 1.38604,-0.0416 2.71702,0.96385 2.77539,2.90429 0.0545,1.81255 -1.12518,3.04433 -2.70313,3.0918 -1.42869,0.0431 -2.59383,-1.09621 -2.64258,-2.7168 -0.0571,-1.89781 1.03501,-3.23311 2.57032,-3.27929 z m -14.10157,1.26757 2.79297,0.14063 c 1.59659,0.10469 2.84221,0.67706 2.73633,2.29492 -0.10031,1.53271 -1.44013,2.0646 -2.99414,1.96289 l -2.78906,-0.18164 z"
       transform="scale(0.26458333)"
       id="path4653"
       inkscape:connector-curvature="0" />
    <path
       id="path4723"
       style="font-style:normal;font-variant:normal;font-weight:normal;font-stretch:normal;font-size:9.87777805px;line-height:125%;font-family:Linotte;-inkscape-font-specification:Linotte;text-align:center;letter-spacing:0px;word-spacing:0px;text-anchor:middle;fill:#008cff;fill-opacity:1;stroke:none;stroke-width:0.26458332px;stroke-linecap:butt;stroke-linejoin:miter;stroke-opacity:1"
       d="m 71.685049,96.721537 c -1.412456,-0.94419 -1.694385,-1.144533 -1.907896,-1.28726 -0.292908,-0.183919 -0.528643,-0.08011 -0.67137,0.133402 -0.170174,0.25457 -0.164996,0.495662 0.105999,0.676815 0.689804,0.461116 1.108613,0.741079 1.434369,0.946956 -0.315667,0.489995 -0.548992,0.85681 -0.867382,1.333104 l -2.03655,3.011016 c -0.233281,0.3312 -0.145894,0.55596 0.1251,0.73711 0.320266,0.21409 0.597017,0.17334 0.816596,-0.15513 1.523396,-2.332242 2.031195,-3.109655 2.574653,-3.922639 l 0.274474,-0.410597 1.363184,0.911252 c 0.320266,0.21409 0.539533,0.134916 0.731665,-0.152503 0.170174,-0.25457 0.112913,-0.471071 -0.158082,-0.652223 -0.361326,-0.241537 -1.497342,-0.977171 -1.78476,-1.169303 z m -7.970941,-3.534924 c -0.313483,0.746855 -0.628429,1.471671 -0.93809,2.209417 -0.607853,1.44817 -1.114511,2.55316 -1.133626,2.5987 l -0.14145,0.336995 c -0.182939,0.512408 -0.02226,0.665555 0.724599,0.979038 1.092958,0.458757 1.832167,0.790457 2.450048,1.028377 0.42279,0.16675 0.609444,-0.0227 0.712665,-0.26863 0.114689,-0.273243 0.06892,-0.495993 -0.213426,-0.614505 -0.145728,-0.06117 -0.267955,-0.101758 -0.453937,-0.16911 -0.932838,-0.380835 -1.647083,-0.669919 -2.080443,-0.86253 0.156741,-0.373427 0.337883,-0.779464 0.494625,-1.152891 0.08028,-0.191268 0.168211,-0.400751 0.253779,-0.579088 0.364319,0.152919 1.543072,0.636975 1.943823,0.805185 0.364319,0.152919 0.550075,0.01664 0.653295,-0.22928 0.169673,-0.378712 -0.02598,-0.525112 -0.372084,-0.670385 -0.349927,-0.136165 -1.213723,-0.477308 -1.486963,-0.591998 l -0.364319,-0.152919 0.0497,-0.118403 0.368467,-0.852328 0.367006,-0.874366 0.400751,0.168211 c 0.746855,0.313483 1.69937,0.724004 2.107767,0.873999 0.259746,0.04475 0.406145,-0.150905 0.473497,-0.336887 0.0994,-0.236808 0.02631,-0.471027 -0.319798,-0.6163 -0.446291,-0.187326 -1.11882,-0.448187 -2.257318,-0.926059 -0.132797,-0.06645 -0.29674,-0.135266 -0.396928,-0.177319 -0.373427,-0.156742 -0.67815,-0.145381 -0.84164,0.193076 z m -8.170257,3.80711 c 0.17334,-1.002585 0.556514,-3.262163 0.748458,-4.311553 0.733388,1.590184 1.754137,3.805303 2.28122,4.98621 0.166609,0.351807 0.272427,0.541871 0.573641,0.596966 0.349797,0.06398 0.676839,-0.07703 0.735489,-0.39768 0.22038,-1.204856 0.304858,-1.721611 0.391113,-2.248084 0.193721,-1.059107 0.409599,-2.184452 0.605097,-3.253276 0.07287,-0.398379 -0.04172,-0.650297 -0.401234,-0.716055 -0.446962,-0.08175 -0.60977,0.14955 -0.678253,0.578857 l -0.371563,2.141201 c -0.126185,0.689877 -0.258649,1.46898 -0.34135,1.97602 L 58.51175,95.096458 56.832505,91.485604 c -0.144568,-0.307609 -0.280367,-0.553365 -0.601014,-0.612014 -0.320647,-0.05865 -0.683001,0.05582 -0.739873,0.366753 -0.08081,0.386885 -0.145735,0.796759 -0.195498,1.068823 -0.165285,0.903642 -0.224882,1.284365 -0.398106,2.176513 -0.345618,1.834656 -0.423817,2.262185 -0.454031,2.427367 -0.05426,0.351574 0.144336,0.528483 0.474699,0.58891 0.330364,0.06043 0.548747,-0.09042 0.625169,-0.508233 z m -6.982612,-6.135465 0.177468,4.886288 c 0.01083,0.315903 5.17e-4,0.879622 0.01542,1.313988 0.0105,0.306032 0.25284,0.455857 0.549,0.4457 0.335647,-0.01151 0.557285,-0.177251 0.546789,-0.483282 -0.01557,-0.454111 -0.06579,-1.341911 -0.08644,-1.944101 -0.02607,-0.760142 0.499282,-1.292107 1.081728,-1.312083 0.602191,-0.02065 0.971125,0.362037 0.995841,1.082691 0.01524,0.444239 0.02896,1.708867 0.02208,2.084679 0.01084,0.315904 0.272585,0.45518 0.558872,0.445361 0.335647,-0.01151 0.567496,-0.167717 0.566533,-0.483959 -0.01755,-0.799968 -0.05112,-1.490668 -0.07415,-2.161962 -0.0386,-1.125405 -0.680794,-1.983019 -1.825943,-1.943744 -0.612062,0.02099 -1.134314,0.355179 -1.365201,0.827626 -0.05203,-2.093536 -0.05774,-2.547985 -0.06823,-2.854016 -0.01185,-0.345519 -0.195978,-0.526992 -0.541497,-0.515142 -0.385007,0.0132 -0.565803,0.217077 -0.55226,0.611956 z m -3.528051,2.638136 c -0.908827,0.190174 -1.657594,0.952358 -1.479559,1.803175 0.182082,0.870153 1.065716,0.897177 1.86144,0.84168 0.617647,-0.03842 0.976272,-0.01254 1.053151,0.354854 0.07283,0.348061 -0.23679,0.604593 -0.662199,0.69361 -0.676786,0.141619 -1.102855,-0.06189 -1.460584,0.01297 -0.309388,0.06474 -0.363139,0.338372 -0.306492,0.609086 0.07081,0.338393 1.001657,0.446363 1.852474,0.268328 1.121531,-0.234682 1.727742,-0.906485 1.537569,-1.815313 -0.186128,-0.88949 -0.952613,-1.031853 -1.907077,-0.963322 -0.497581,0.03348 -0.938727,0.09551 -1.013583,-0.262217 -0.06879,-0.328725 0.263772,-0.620331 0.708517,-0.713395 0.551097,-0.115318 0.936022,0.03625 1.216405,-0.02242 0.290051,-0.06069 0.377301,-0.270693 0.320653,-0.541408 -0.04046,-0.193367 -0.198074,-0.271396 -0.378621,-0.31435 -0.318375,-0.07466 -0.790997,-0.06659 -1.342094,0.04873 z m -3.147415,2.207182 -0.275054,-0.709182 c -0.140263,-0.348164 -0.335105,-0.514601 -0.701593,-0.366956 -0.210731,0.0849 -0.294709,0.246518 -0.288713,0.446438 0.0149,0.08984 0.05563,0.24382 0.0816,0.361149 -0.440967,-0.301566 -0.991356,-0.346065 -1.50444,-0.139362 -1.191087,0.479846 -1.734505,1.774342 -1.195601,3.112024 0.450318,1.11779 1.589056,1.723953 2.80763,1.233037 0.595543,-0.239923 0.968627,-0.688403 1.051555,-1.275572 0.256074,0.450597 0.430812,0.646432 0.733165,0.524625 0.265704,-0.107043 0.485334,-0.302016 0.352454,-0.631856 -0.186205,-0.382901 -0.350394,-0.764023 -0.509113,-1.157998 z m -2.87787,2.26691 c -0.32851,-0.815437 -0.06807,-1.569961 0.591608,-1.835722 0.595544,-0.239923 1.335304,-0.01613 1.671196,0.817628 0.313746,0.778787 -0.0018,1.502265 -0.679801,1.775409 -0.613868,0.247305 -1.302477,-0.06099 -1.583003,-0.757315 z m -6.76728,-1.425056 c -0.395486,0.261521 -1.076557,0.700046 -1.422875,1.000106 -0.250103,0.212752 -0.295026,0.502984 -0.126127,0.758402 0.321452,0.486119 0.640381,0.914696 0.961833,1.400814 l 1.106014,1.672578 0.967015,1.48028 c 0.228964,0.31044 0.518928,0.42659 0.823782,0.225 l 0.642666,-0.42497 c 0.609708,-0.40318 1.05463,-0.69739 1.389917,-0.97831 0.829913,-0.67906 1.06076,-1.60144 0.406959,-2.590158 -0.441316,-0.667383 -1.169552,-0.801616 -1.863643,-0.543955 0.294892,-0.467369 0.332911,-1.108298 -0.05392,-1.693288 -0.629351,-0.933832 -1.801708,-0.987542 -2.831621,-0.306499 z m 2.22386,3.112332 c 0.617947,-0.408626 1.237617,-0.546023 1.651691,0.08016 0.392281,0.593238 0.04769,1.164518 -0.553783,1.562248 l -1.079348,0.71374 -1.087012,-1.62594 z m -0.249261,-2.203591 c 0.370488,0.560272 0.250477,1.148841 -0.312587,1.533016 -0.296614,0.196141 -0.802003,0.542177 -0.991506,0.667489 -0.945355,-1.411711 -1.048874,-1.568257 -1.114254,-1.667129 0.200534,-0.144448 0.73064,-0.50683 0.944862,-0.648487 0.524524,-0.335006 1.127448,-0.390277 1.473485,0.115111 z"
       inkscape:connector-curvature="0" />
  </g>
</svg>
